<mxfile host="65bd71144e">
    <diagram id="yLkPiW5OjbrbtTg0xUS2" name="Page-1">
        <mxGraphModel dx="1006" dy="653" grid="1" gridSize="10" guides="1" tooltips="1" connect="1" arrows="1" fold="1" page="1" pageScale="1" pageWidth="850" pageHeight="1100" math="0" shadow="0">
            <root>
                <mxCell id="0"/>
                <mxCell id="1" parent="0"/>
                <mxCell id="32" value="" style="edgeStyle=none;html=1;strokeColor=#FFFFFF;strokeWidth=3;fontColor=#000000;endSize=12;" parent="1" source="2" edge="1">
                    <mxGeometry relative="1" as="geometry">
                        <mxPoint x="170" y="382.5650908452558" as="targetPoint"/>
                    </mxGeometry>
                </mxCell>
                <mxCell id="2" value="&lt;font style=&quot;font-size: 24px;&quot;&gt;&lt;b&gt;Tested lib&lt;/b&gt;&lt;/font&gt;" style="whiteSpace=wrap;html=1;aspect=fixed;fillColor=#6a00ff;fontColor=#ffffff;strokeColor=#000000;align=left;verticalAlign=top;" parent="1" vertex="1">
                    <mxGeometry x="400" y="78.56" width="401.44" height="401.44" as="geometry"/>
                </mxCell>
                <mxCell id="4" value="" style="verticalLabelPosition=bottom;verticalAlign=top;html=1;shape=mxgraph.basic.flash;fillColor=#FF0000;fontColor=#ffffff;strokeColor=#000000;strokeWidth=2;" parent="1" vertex="1">
                    <mxGeometry x="491.44" y="330" width="38.56" height="50" as="geometry"/>
                </mxCell>
                <mxCell id="8" value="" style="endArrow=classic;html=1;exitX=0;exitY=0.25;exitDx=0;exitDy=0;entryX=1.009;entryY=0.559;entryDx=0;entryDy=0;entryPerimeter=0;strokeColor=#FFFFFF;strokeWidth=3;endSize=6;" parent="1" source="2" target="2" edge="1">
                    <mxGeometry width="50" height="50" relative="1" as="geometry">
                        <mxPoint x="617.4200000000001" y="228.01999999999998" as="sourcePoint"/>
                        <mxPoint x="541.44" y="440" as="targetPoint"/>
                        <Array as="points">
                            <mxPoint x="580" y="303"/>
                            <mxPoint x="650" y="300"/>
                        </Array>
                    </mxGeometry>
                </mxCell>
                <mxCell id="13" value="" style="endArrow=classic;html=1;entryX=0.5;entryY=0.4;entryDx=0;entryDy=0;entryPerimeter=0;exitX=-0.004;exitY=0.325;exitDx=0;exitDy=0;exitPerimeter=0;strokeColor=#FFFFFF;strokeWidth=3;endSize=6;" parent="1" source="2" target="4" edge="1">
                    <mxGeometry width="50" height="50" relative="1" as="geometry">
                        <mxPoint x="535.44" y="220" as="sourcePoint"/>
                        <mxPoint x="551.44" y="450" as="targetPoint"/>
                        <Array as="points">
                            <mxPoint x="510" y="290"/>
                        </Array>
                    </mxGeometry>
                </mxCell>
                <mxCell id="14" value="&lt;font style=&quot;font-size: 20px;&quot;&gt;&lt;b&gt;Fuzzer&lt;/b&gt;&lt;/font&gt;" style="rounded=0;whiteSpace=wrap;html=1;fillColor=#1ba1e2;fontColor=#ffffff;strokeColor=#000000;align=left;verticalAlign=top;" parent="1" vertex="1">
                    <mxGeometry x="220" y="78.56" width="100" height="401.44" as="geometry"/>
                </mxCell>
                <mxCell id="15" value="" style="shape=flexArrow;endArrow=classic;html=1;fillColor=#dae8fc;strokeColor=#6c8ebf;" parent="1" source="14" target="2" edge="1">
                    <mxGeometry width="50" height="50" relative="1" as="geometry">
                        <mxPoint x="490" y="440" as="sourcePoint"/>
                        <mxPoint x="540" y="390" as="targetPoint"/>
                    </mxGeometry>
                </mxCell>
                <mxCell id="16" value="" style="endArrow=classic;html=1;entryX=1.001;entryY=0.484;entryDx=0;entryDy=0;entryPerimeter=0;strokeColor=#FFFFFF;endSize=6;strokeWidth=3;exitX=0;exitY=0.148;exitDx=0;exitDy=0;exitPerimeter=0;" parent="1" source="2" target="2" edge="1">
                    <mxGeometry width="50" height="50" relative="1" as="geometry">
                        <mxPoint x="441.44" y="180" as="sourcePoint"/>
                        <mxPoint x="681.44" y="271.9200000000001" as="targetPoint"/>
                        <Array as="points">
                            <mxPoint x="600" y="273"/>
                        </Array>
                    </mxGeometry>
                </mxCell>
                <mxCell id="17" value="" style="endArrow=classic;html=1;exitX=-0.005;exitY=0.449;exitDx=0;exitDy=0;exitPerimeter=0;strokeColor=#FFFFFF;strokeWidth=3;endSize=6;" parent="1" source="2" edge="1">
                    <mxGeometry width="50" height="50" relative="1" as="geometry">
                        <mxPoint x="471.44" y="300" as="sourcePoint"/>
                        <mxPoint x="800" y="400" as="targetPoint"/>
                        <Array as="points">
                            <mxPoint x="481.44" y="324"/>
                            <mxPoint x="481.44" y="400"/>
                            <mxPoint x="530" y="400"/>
                            <mxPoint x="591.44" y="400"/>
                        </Array>
                    </mxGeometry>
                </mxCell>
                <mxCell id="18" value="" style="endArrow=classic;html=1;strokeColor=#FFFFFF;strokeWidth=3;" parent="1" edge="1">
                    <mxGeometry width="50" height="50" relative="1" as="geometry">
                        <mxPoint x="580" y="401.44" as="sourcePoint"/>
                        <mxPoint x="580" y="371.44" as="targetPoint"/>
                        <Array as="points">
                            <mxPoint x="580" y="330"/>
                            <mxPoint x="660" y="330"/>
                            <mxPoint x="660" y="370"/>
                        </Array>
                    </mxGeometry>
                </mxCell>
                <mxCell id="20" value="&lt;font style=&quot;font-size: 20px;&quot;&gt;Valid&lt;br&gt;inputs&lt;br&gt;(seeds)&lt;/font&gt;" style="rounded=0;whiteSpace=wrap;html=1;fillColor=#dae8fc;strokeColor=#6c8ebf;align=left;verticalAlign=top;" parent="1" vertex="1">
                    <mxGeometry x="100" y="78.56" width="70" height="400" as="geometry"/>
                </mxCell>
                <mxCell id="21" value="" style="rounded=0;whiteSpace=wrap;html=1;fillColor=#dae8fc;strokeColor=#6c8ebf;" parent="1" vertex="1">
                    <mxGeometry x="100" y="440" width="70" height="38.56" as="geometry"/>
                </mxCell>
                <mxCell id="39" value="" style="rounded=0;whiteSpace=wrap;html=1;fillColor=#dae8fc;strokeColor=#6c8ebf;" parent="1" vertex="1">
                    <mxGeometry x="100" y="401.44" width="70" height="38.56" as="geometry"/>
                </mxCell>
                <mxCell id="40" value="" style="rounded=0;whiteSpace=wrap;html=1;fillColor=#dae8fc;strokeColor=#6c8ebf;" parent="1" vertex="1">
                    <mxGeometry x="100" y="362.88" width="70" height="38.56" as="geometry"/>
                </mxCell>
                <mxCell id="41" value="" style="rounded=0;whiteSpace=wrap;html=1;fillColor=#dae8fc;strokeColor=#6c8ebf;" parent="1" vertex="1">
                    <mxGeometry x="100" y="324.32" width="70" height="38.56" as="geometry"/>
                </mxCell>
                <mxCell id="42" value="" style="rounded=0;whiteSpace=wrap;html=1;fillColor=#dae8fc;strokeColor=#6c8ebf;" parent="1" vertex="1">
                    <mxGeometry x="100" y="285.76" width="70" height="38.56" as="geometry"/>
                </mxCell>
                <mxCell id="47" value="" style="endArrow=classic;html=1;strokeWidth=6;entryX=0.5;entryY=1;entryDx=0;entryDy=0;exitX=0.5;exitY=1;exitDx=0;exitDy=0;" edge="1" parent="1" source="53" target="14">
                    <mxGeometry relative="1" as="geometry">
                        <mxPoint x="370" y="560" as="sourcePoint"/>
                        <mxPoint x="250" y="540" as="targetPoint"/>
                        <Array as="points">
                            <mxPoint x="520" y="520"/>
                            <mxPoint x="300" y="520"/>
                        </Array>
                    </mxGeometry>
                </mxCell>
                <mxCell id="48" value="" style="shape=message;html=1;outlineConnect=0;fillColor=#dae8fc;strokeColor=#6c8ebf;" vertex="1" parent="47">
                    <mxGeometry width="20" height="14" relative="1" as="geometry">
                        <mxPoint x="-10" y="-7" as="offset"/>
                    </mxGeometry>
                </mxCell>
                <mxCell id="53" value="" style="rounded=0;whiteSpace=wrap;html=1;fillColor=none;dashed=1;dashPattern=1 1;strokeWidth=6;" vertex="1" parent="1">
                    <mxGeometry x="440" y="220" width="200" height="230" as="geometry"/>
                </mxCell>
                <mxCell id="55" value="" style="endArrow=classic;html=1;strokeColor=#FFFFFF;strokeWidth=3;endSize=6;exitX=0;exitY=0;exitDx=80.99;exitDy=70.52;exitPerimeter=0;entryX=0.75;entryY=1;entryDx=0;entryDy=0;" edge="1" parent="1" source="56" target="2">
                    <mxGeometry width="50" height="50" relative="1" as="geometry">
                        <mxPoint x="435.2717900656046" y="480" as="sourcePoint"/>
                        <mxPoint x="590" y="410" as="targetPoint"/>
                        <Array as="points">
                            <mxPoint x="460" y="430"/>
                            <mxPoint x="610" y="430"/>
                            <mxPoint x="700" y="430"/>
                        </Array>
                    </mxGeometry>
                </mxCell>
                <mxCell id="56" value="" style="shape=callout;whiteSpace=wrap;html=1;perimeter=calloutPerimeter;strokeWidth=4;fillColor=none;strokeColor=#FFFFFF;rotation=-90;size=30;position=0.42;base=20;rounded=1;" vertex="1" parent="1">
                    <mxGeometry x="343.22" y="344.26" width="161.98" height="70.52" as="geometry"/>
                </mxCell>
                <mxCell id="58" value="Invalid&lt;br&gt;input" style="text;html=1;strokeColor=none;fillColor=none;align=center;verticalAlign=middle;whiteSpace=wrap;rounded=0;strokeWidth=4;fontColor=#FFFFFF;fontSize=22;" vertex="1" parent="1">
                    <mxGeometry x="700" y="428.56" width="70" height="50" as="geometry"/>
                </mxCell>
            </root>
        </mxGraphModel>
    </diagram>
</mxfile>